<svg width="52" height="52" viewBox="0 0 52 52" fill="none" xmlns="http://www.w3.org/2000/svg">
<path d="M19.2653 28.0408L19.3265 32.1224H17.7142L17.7755 28.1836L17.7142 19.0408H19.3469L19.2653 28.0408ZM21.2857 25.1836C23.0952 27.5238 24.9863 29.721 26.9591 31.7755L26.9387 31.9795C26.5306 32.102 26.0204 32.2108 25.4081 32.3061L25.204 32.204C23.0544 29.7687 21.1768 27.4557 19.5714 25.2653V25.1428L23.9387 20.1836L24.7551 19.0408H26.5918L21.2857 25.1836ZM32.4056 18.9387C33.3443 18.9387 34.3171 19.1428 35.3239 19.551L35.0586 21.1224L34.7729 21.204C34.3784 20.9047 33.9566 20.6734 33.5076 20.5102C33.0722 20.3469 32.6368 20.2653 32.2015 20.2653C31.6981 20.2653 31.2559 20.3673 30.8749 20.5714C30.5076 20.7755 30.2219 21.0408 30.0178 21.3673C29.8273 21.6938 29.7321 22.034 29.7321 22.3877C29.7321 22.755 29.8409 23.0816 30.0586 23.3673C30.2899 23.6394 30.5756 23.8775 30.9158 24.0816C31.2559 24.2857 31.7185 24.5306 32.3035 24.8163C33.0382 25.1564 33.63 25.4761 34.079 25.7755C34.528 26.0612 34.909 26.4285 35.2219 26.8775C35.5484 27.3265 35.7117 27.8707 35.7117 28.5101C35.7117 29.1904 35.528 29.8163 35.1607 30.3877C34.7933 30.9591 34.2763 31.4149 33.6096 31.755C32.943 32.0952 32.1811 32.2653 31.3239 32.2653C30.7525 32.2653 30.1539 32.1904 29.528 32.0408C28.9158 31.8775 28.3443 31.6462 27.8137 31.3469L28.0178 29.6734L28.2423 29.5714C28.7185 30.034 29.2423 30.3809 29.8137 30.6122C30.3988 30.8299 30.9566 30.9387 31.4872 30.9387C32.0042 30.9387 32.46 30.8367 32.8545 30.6326C33.2627 30.4285 33.5688 30.1564 33.7729 29.8163C33.9906 29.4761 34.0994 29.1156 34.0994 28.7346C34.0994 28.1632 33.8817 27.7074 33.4464 27.3673C33.011 27.0136 32.3511 26.6326 31.4668 26.2244C30.7457 25.8707 30.1674 25.5578 29.7321 25.2857C29.2967 24.9999 28.9226 24.6394 28.6096 24.204C28.2967 23.755 28.1403 23.2108 28.1403 22.5714C28.1403 21.9047 28.3171 21.2924 28.6709 20.7346C29.0382 20.1768 29.5416 19.7414 30.1811 19.4285C30.8341 19.102 31.5756 18.9387 32.4056 18.9387Z" fill="#131314"/>
<path d="M26 51C39.8071 51 51 39.8071 51 26C51 12.1929 39.8071 1 26 1C12.1929 1 1 12.1929 1 26C1 39.8071 12.1929 51 26 51Z" stroke="#131314" stroke-width="2"/>
<path d="M50.0645 25.8931L25.8929 1.72156L1.72144 25.8931L25.8929 50.0646L50.0645 25.8931Z" stroke="#131314" stroke-width="2"/>
<path d="M50.0645 25.8931L25.8929 1.72156L1.72144 25.8931L25.8929 50.0646L50.0645 25.8931Z" stroke="#131314" stroke-width="2"/>
</svg>
